<svg xmlns="http://www.w3.org/2000/svg" width="640pt" height="480pt" viewBox="0 0 640 480" version="1.1">
<g id="#2d3e48ff">
<path fill="#2d3e48" opacity="1.00" d=" M 0.00 0.00 L 73.49 0.00 C 49.06 13.19 24.39 25.96 0.00 39.22 L 0.00 0.00 Z"/>
<path fill="#2d3e48" opacity="1.00" d=" M 617.19 19.26 C 624.80 16.76 632.22 13.70 640.00 11.74 L 640.00 14.10 C 634.04 18.12 626.81 19.11 620.11 21.25 C 611.87 24.61 603.55 27.89 594.88 29.97 C 589.04 31.36 583.85 34.59 577.99 35.94 C 571.33 37.38 565.46 41.05 558.89 42.75 C 553.94 44.39 548.71 45.08 543.88 47.08 C 533.32 52.16 521.76 54.59 510.94 59.00 C 503.82 61.88 496.10 62.92 489.10 66.13 C 484.33 68.35 479.06 69.15 474.26 71.28 C 469.66 73.28 464.77 74.42 460.06 76.11 C 455.81 77.59 451.08 77.77 447.18 80.21 C 443.18 82.67 438.52 83.57 434.18 85.23 C 425.08 88.51 415.67 90.87 406.61 94.26 C 406.33 93.25 406.13 92.23 405.92 91.22 C 476.33 67.19 546.77 43.26 617.19 19.26 Z"/>
<path fill="#2d3e48" opacity="1.00" d=" M 145.05 176.03 C 147.27 174.97 149.63 175.75 151.67 176.82 C 136.57 183.40 120.38 186.99 105.12 193.16 C 88.01 199.09 70.87 204.96 53.71 210.76 C 44.88 214.08 35.55 215.92 26.95 219.85 C 17.94 222.69 8.93 225.56 0.00 228.69 L 0.00 225.95 C 48.46 209.62 96.70 192.66 145.05 176.03 Z"/>
</g>
<g id="#170d0eff">
<path fill="#170d0e" opacity="1.00" d=" M 73.49 0.00 L 76.99 0.00 C 74.32 2.53 71.03 4.19 67.75 5.80 C 45.20 17.88 22.64 29.93 0.00 41.85 L 0.00 39.22 C 24.39 25.96 49.06 13.19 73.49 0.00 Z"/>
<path fill="#170d0e" opacity="1.00" d=" M 169.12 0.00 L 173.07 0.00 C 171.03 1.71 168.88 3.32 166.42 4.40 C 159.72 7.51 153.22 11.01 146.54 14.16 C 153.23 26.71 160.97 38.69 168.02 51.04 C 175.70 64.00 183.31 77.01 190.94 90.00 C 195.55 97.08 199.15 104.77 203.96 111.73 C 208.19 107.86 212.10 103.63 216.64 100.11 C 211.69 92.39 207.43 84.27 202.41 76.59 C 197.48 69.04 193.78 60.78 189.33 52.94 C 190.16 51.36 190.36 49.06 192.24 48.30 C 200.46 44.81 210.98 46.15 217.45 52.54 C 224.07 58.49 230.87 65.09 233.39 73.91 C 234.55 79.11 234.21 84.49 234.13 89.77 C 237.69 88.91 241.33 88.37 245.00 88.31 C 251.00 88.16 256.98 87.19 262.99 87.62 C 270.30 88.13 277.67 88.25 284.91 89.49 C 294.87 90.92 304.47 94.06 313.97 97.29 C 313.83 91.35 312.64 85.51 311.08 79.81 C 307.95 68.37 305.18 56.74 300.09 45.97 C 298.48 41.90 295.95 38.23 294.62 34.05 C 295.18 32.62 295.93 31.26 296.64 29.89 C 303.54 31.46 309.03 36.20 314.57 40.31 C 320.00 45.29 326.38 49.22 331.09 54.96 C 341.10 66.03 351.07 77.21 359.46 89.58 C 362.48 94.10 364.95 98.95 367.85 103.54 C 368.78 96.96 367.17 90.40 365.78 84.01 C 363.47 75.73 360.96 67.45 357.26 59.66 C 354.56 53.87 352.20 47.93 349.73 42.04 C 348.74 39.77 348.34 37.31 347.99 34.87 C 352.66 36.49 356.39 39.83 360.40 42.61 C 366.91 46.96 372.47 52.50 377.93 58.07 C 382.35 63.28 386.45 68.79 391.46 73.49 C 396.39 78.09 399.99 83.82 404.19 89.04 C 449.09 73.64 494.01 58.28 538.99 43.08 C 540.00 42.68 541.03 42.28 542.05 41.86 C 539.98 35.17 536.01 29.32 533.11 22.99 C 529.47 15.26 525.33 7.78 521.77 0.00 L 524.36 0.00 C 531.14 13.62 537.94 27.24 544.67 40.88 C 549.93 39.68 554.83 37.37 559.97 35.78 C 586.72 26.95 613.28 17.57 640.00 8.66 L 640.00 11.74 C 632.22 13.70 624.80 16.76 617.19 19.26 C 546.77 43.26 476.33 67.19 405.92 91.22 C 406.13 92.23 406.33 93.25 406.61 94.26 C 411.61 103.89 413.87 114.65 416.58 125.08 C 418.20 130.78 418.38 136.72 418.63 142.61 C 438.40 137.25 457.92 131.01 477.59 125.29 C 531.71 109.20 585.82 93.04 640.00 77.16 L 640.00 79.63 C 623.34 84.99 606.49 89.78 589.70 94.72 C 532.75 111.79 475.70 128.55 418.73 145.57 C 419.05 156.87 413.95 168.06 405.52 175.51 C 400.48 180.12 393.34 180.62 386.86 180.25 C 387.45 183.89 387.93 187.74 390.12 190.84 C 392.77 194.93 397.58 196.82 400.55 200.62 C 403.05 203.61 403.75 207.55 404.70 211.21 C 412.10 216.65 420.90 223.14 421.50 233.14 C 421.85 241.12 422.93 249.68 419.08 257.05 C 417.07 261.86 413.30 265.55 409.62 269.10 C 414.05 270.77 418.82 272.29 422.25 275.71 C 426.47 280.77 425.38 287.92 423.50 293.71 C 422.40 296.88 418.93 298.01 416.32 299.63 C 419.82 305.45 423.11 311.41 426.96 317.01 C 432.89 325.33 441.99 331.08 446.82 340.23 C 449.05 345.54 444.93 351.00 440.32 353.32 C 434.61 356.19 428.06 355.00 421.93 355.51 C 413.14 356.16 404.32 356.30 395.52 356.04 C 398.66 360.47 396.55 366.48 392.22 369.24 C 384.44 374.30 376.61 379.43 369.93 385.94 C 367.23 388.22 365.00 390.99 363.37 394.13 C 370.67 402.64 377.77 411.56 382.09 422.02 C 385.17 428.00 386.99 435.11 392.59 439.36 C 405.87 450.06 414.29 465.22 422.22 480.00 L 418.94 480.00 C 411.81 465.07 402.67 450.83 389.90 440.09 C 390.89 444.92 393.57 449.16 395.04 453.85 C 397.87 462.27 401.44 470.92 400.29 480.00 L 397.79 480.00 C 397.82 477.00 398.07 473.96 397.55 470.99 C 394.12 457.58 388.59 444.86 383.81 431.92 C 380.37 425.09 377.93 417.72 373.37 411.52 C 370.29 406.29 366.29 401.73 362.32 397.18 C 358.47 402.41 356.30 408.59 353.26 414.28 C 352.12 416.53 350.78 418.72 350.10 421.17 C 350.34 423.39 352.07 425.06 353.08 426.99 C 355.74 431.22 355.69 436.37 356.57 441.14 C 358.52 454.05 361.98 466.83 361.67 480.00 L 358.74 480.00 C 358.39 472.36 358.76 464.53 356.47 457.14 C 354.82 449.66 354.01 442.03 352.70 434.50 C 351.99 431.18 350.93 427.86 348.74 425.20 C 346.43 426.96 345.83 430.03 344.52 432.49 C 343.38 435.45 341.19 437.80 339.05 440.07 C 326.67 441.26 314.15 441.89 301.79 440.20 C 294.63 438.48 287.52 436.51 280.44 434.48 C 270.89 432.39 262.58 426.93 254.51 421.66 C 257.89 434.15 262.88 446.12 268.08 457.95 C 271.29 465.48 274.89 472.84 278.87 480.00 L 275.65 480.00 C 272.12 473.80 269.16 467.28 266.17 460.81 C 257.85 441.80 250.00 422.27 247.13 401.59 C 246.42 396.45 245.15 391.17 245.98 385.99 L 247.25 384.46 C 248.16 387.64 248.55 390.92 248.91 394.20 C 250.43 385.55 250.61 376.72 250.32 367.97 C 246.35 369.93 242.81 372.60 239.37 375.36 C 234.95 378.78 232.58 383.99 229.49 388.50 C 225.34 394.68 221.86 401.37 219.73 408.52 C 217.96 419.60 217.76 430.86 216.60 442.02 C 216.00 454.66 215.03 467.35 216.14 480.00 L 213.66 480.00 C 212.47 471.37 212.42 462.64 213.40 453.99 C 213.49 439.63 215.37 425.37 216.46 411.07 C 214.12 411.71 211.84 412.60 209.80 413.93 C 202.87 418.31 195.52 422.07 189.03 427.12 C 176.00 436.99 163.06 447.00 150.68 457.68 C 142.40 464.40 134.56 471.76 127.79 480.00 L 124.86 480.00 C 126.52 477.65 128.02 475.16 130.09 473.14 C 149.12 454.26 170.41 437.86 191.88 421.88 C 199.51 417.03 207.17 412.16 215.30 408.19 C 217.91 407.21 218.29 404.16 219.33 401.94 C 222.31 393.43 228.04 386.36 232.75 378.79 C 236.87 372.08 244.80 369.36 250.28 364.15 C 250.12 358.77 249.57 353.41 249.81 348.02 C 250.04 336.79 245.20 326.44 241.02 316.29 C 234.23 317.24 228.78 312.72 223.47 309.28 C 219.20 305.53 215.82 300.79 213.56 295.59 C 212.96 294.65 212.69 293.25 211.50 292.88 C 199.99 289.16 188.29 284.96 178.74 277.29 C 174.42 273.96 170.85 269.80 166.96 266.00 C 160.13 259.71 155.65 251.05 153.83 241.99 C 153.09 235.85 153.55 229.64 153.36 223.46 C 114.94 234.94 76.59 246.69 38.18 258.23 C 25.53 262.38 12.60 265.65 0.00 269.96 L 0.00 267.01 C 51.20 251.61 102.34 235.93 153.57 220.63 C 155.99 207.51 158.50 193.76 166.27 182.59 C 161.21 181.21 156.20 179.50 151.67 176.82 C 149.63 175.75 147.27 174.97 145.05 176.03 C 96.70 192.66 48.46 209.62 0.00 225.95 L 0.00 223.67 C 43.94 208.27 87.97 193.13 131.95 177.87 C 135.86 176.55 139.98 175.64 143.48 173.35 C 138.89 171.37 133.86 170.26 129.80 167.18 C 129.96 166.42 130.26 164.91 130.42 164.15 C 134.89 160.75 140.24 158.92 145.13 156.25 C 151.72 152.72 158.42 149.40 165.05 145.95 C 165.18 139.46 161.13 134.10 158.79 128.33 C 156.00 123.03 154.58 116.89 150.42 112.40 C 153.33 110.92 156.06 113.42 158.67 114.46 C 166.44 117.99 173.87 122.34 182.01 125.04 C 180.64 119.89 177.45 115.53 175.36 110.68 C 168.86 96.49 161.15 82.90 153.68 69.20 C 152.96 67.67 150.91 66.52 149.34 67.38 C 147.75 69.48 147.21 72.12 146.65 74.64 C 145.33 81.09 144.70 87.78 145.66 94.32 C 146.14 97.81 147.75 101.41 146.31 104.88 C 144.44 99.79 142.28 94.60 142.35 89.08 C 142.47 81.69 143.19 74.09 146.34 67.31 C 147.64 63.71 153.51 63.16 155.04 66.88 C 162.64 80.48 170.27 94.10 176.85 108.24 C 179.82 114.66 183.40 120.80 186.03 127.38 C 187.83 127.62 190.12 129.48 191.43 127.42 C 195.21 122.83 198.05 117.52 201.92 112.96 C 184.44 83.45 167.19 53.80 149.80 24.23 C 148.09 21.20 146.35 18.18 144.38 15.32 C 96.24 39.30 48.17 63.44 0.00 87.35 L 0.00 84.60 C 56.39 56.44 112.85 28.41 169.12 0.00 M 297.39 33.12 C 298.09 37.37 301.06 40.75 302.36 44.80 C 307.72 55.84 310.46 67.85 313.75 79.61 C 315.81 86.08 316.22 92.92 316.85 99.64 C 315.21 99.65 313.53 99.68 311.95 99.16 C 302.45 96.28 292.95 93.19 283.10 91.76 C 278.11 91.52 273.21 90.53 268.22 90.33 C 260.16 89.16 252.04 90.10 243.99 90.81 C 234.67 90.96 225.63 95.15 218.94 101.55 C 212.77 106.38 207.01 111.76 201.66 117.48 C 198.07 122.12 195.12 127.25 191.35 131.77 C 178.94 128.02 167.94 120.84 155.97 115.96 C 159.65 124.21 163.55 132.35 167.20 140.62 C 167.83 142.80 167.56 145.12 167.67 147.36 C 156.26 153.52 144.55 159.14 133.13 165.25 C 133.23 165.60 133.42 166.29 133.52 166.64 C 139.64 169.61 146.37 171.26 152.38 174.52 C 157.73 177.44 163.63 179.07 169.44 180.76 C 169.49 181.53 169.54 182.32 169.60 183.10 C 165.96 186.19 164.57 190.91 162.58 195.07 C 159.57 204.18 157.25 213.55 155.98 223.06 C 155.35 233.36 155.42 244.31 160.66 253.56 C 164.24 260.85 170.65 266.05 176.07 271.91 C 186.06 281.02 198.77 286.42 211.67 289.97 C 211.71 285.88 211.09 281.61 212.70 277.73 C 215.33 268.87 223.46 262.73 232.01 260.08 C 236.85 258.87 241.67 260.98 245.97 263.00 C 251.62 267.93 254.92 274.84 258.89 281.08 C 260.36 283.06 260.91 286.18 263.49 287.03 C 266.15 271.74 264.39 256.00 260.47 241.10 C 253.02 220.45 243.65 199.72 227.56 184.30 C 225.79 182.56 223.03 181.22 223.21 178.34 C 226.53 177.31 230.12 177.32 233.43 178.41 C 243.30 181.42 252.86 185.38 262.29 189.57 C 260.89 185.14 258.76 180.93 255.76 177.36 C 249.84 169.33 242.80 162.16 234.99 155.97 C 237.25 153.29 240.88 152.71 244.14 152.14 C 254.07 150.65 263.99 152.60 273.73 154.38 C 286.41 157.29 299.13 160.09 311.91 162.55 C 331.55 166.28 350.95 171.14 370.53 175.16 C 379.25 176.75 388.17 178.71 397.05 177.22 C 405.43 174.69 410.87 166.84 413.79 158.97 C 417.02 152.46 415.51 144.98 415.71 138.00 C 416.00 132.55 414.15 127.40 413.17 122.13 C 410.45 112.63 408.41 102.77 403.62 94.03 C 397.34 80.80 385.23 71.88 376.57 60.39 C 371.02 54.75 365.53 48.86 358.80 44.59 C 356.61 42.67 354.22 40.97 351.64 39.59 C 352.31 42.05 353.23 44.44 354.33 46.73 C 359.03 57.07 363.70 67.47 366.93 78.38 C 369.50 84.64 369.72 91.46 370.49 98.09 C 370.84 101.01 369.92 103.86 369.32 106.69 C 367.47 106.62 365.73 105.85 364.97 104.07 C 356.48 87.69 344.61 73.35 332.15 59.85 C 329.55 56.81 327.02 53.64 323.85 51.16 C 316.38 45.24 309.27 38.81 301.05 33.91 C 299.91 33.37 298.61 33.36 297.39 33.12 M 192.31 51.34 C 192.30 51.97 192.27 53.23 192.26 53.85 C 193.64 55.48 194.85 57.27 195.58 59.29 C 197.53 64.69 201.00 69.31 203.77 74.29 C 208.86 81.83 213.08 89.90 217.43 97.87 C 222.73 97.45 226.15 92.47 231.14 90.93 C 232.15 86.03 231.69 80.95 231.24 76.01 C 230.06 67.69 223.60 61.66 217.98 55.98 C 211.89 48.82 200.55 46.97 192.31 51.34 M 239.23 155.94 C 241.73 158.75 244.81 160.98 247.38 163.72 C 251.85 167.97 255.41 173.03 259.26 177.82 C 262.09 181.21 263.39 185.51 265.25 189.45 C 266.02 190.72 265.83 192.17 265.29 193.49 C 256.09 189.79 247.09 185.58 237.67 182.43 C 234.08 181.31 230.46 180.03 226.64 180.13 C 230.64 183.19 233.92 186.97 236.91 191.00 C 249.20 205.13 256.25 222.79 262.91 240.06 C 266.39 255.06 269.53 270.80 266.22 286.14 C 265.43 288.04 264.53 290.99 262.02 290.89 C 256.07 282.45 252.05 272.56 244.73 265.12 C 239.59 262.29 232.92 261.67 227.60 264.52 C 220.42 267.89 214.97 274.89 214.28 282.89 C 212.94 292.24 218.35 300.88 224.81 307.11 C 227.97 309.49 231.60 311.14 234.85 313.38 C 237.87 313.47 240.91 313.81 243.92 313.43 C 246.22 312.73 248.30 311.35 250.76 311.16 C 250.80 314.59 246.39 315.16 243.91 316.19 C 247.58 325.85 252.18 335.41 252.50 345.94 C 252.42 363.28 255.39 381.05 250.48 398.01 C 248.80 401.96 250.83 406.05 251.37 410.03 C 251.99 412.74 251.63 416.19 254.22 417.98 C 260.89 422.91 268.06 427.31 275.82 430.31 C 284.21 432.74 292.69 434.91 301.10 437.30 C 304.38 438.09 307.78 437.67 311.11 437.98 C 319.94 438.95 328.79 437.54 337.65 437.60 C 339.25 435.90 340.92 434.17 341.77 431.94 C 344.93 424.56 349.00 417.61 352.36 410.32 C 355.55 402.92 359.53 395.89 363.60 388.95 C 370.91 380.36 380.23 373.75 389.80 367.88 C 393.05 366.11 395.58 361.75 393.61 358.19 C 391.94 357.76 390.37 357.05 388.95 356.07 C 379.31 355.72 369.65 355.89 360.00 355.83 C 355.23 355.63 350.99 358.38 346.33 358.69 C 344.80 357.55 346.68 356.28 347.80 356.06 C 351.67 354.51 355.77 353.30 359.98 353.38 C 371.00 353.44 382.01 353.44 393.03 353.48 C 402.67 353.40 412.36 354.15 421.95 352.82 C 427.27 352.07 432.87 353.44 438.00 351.51 C 440.96 350.02 444.57 347.78 444.48 344.00 C 445.06 340.59 442.48 337.96 440.52 335.53 C 436.15 330.84 431.56 326.35 427.29 321.56 C 422.13 315.05 418.13 307.76 413.88 300.65 C 407.20 303.40 399.79 301.47 392.94 303.31 C 390.12 303.94 387.23 304.12 384.36 304.23 C 383.98 300.31 388.80 302.06 391.05 300.97 C 396.87 299.04 403.01 300.05 408.99 299.42 C 412.36 298.62 415.49 297.04 418.57 295.48 C 420.65 294.59 421.54 292.30 421.74 290.19 C 422.49 286.01 423.16 281.14 420.50 277.49 C 415.97 273.57 409.92 271.52 403.95 271.55 C 397.92 271.51 391.95 270.64 385.96 270.09 C 382.66 269.89 379.78 267.88 377.59 265.54 C 374.67 262.43 371.23 259.89 368.01 257.11 C 366.15 255.42 363.61 255.00 361.28 254.33 C 359.90 258.86 358.10 263.69 354.03 266.48 C 353.66 266.15 352.92 265.49 352.54 265.16 C 355.93 260.96 359.15 256.31 358.88 250.63 C 348.56 247.71 337.81 245.69 327.05 247.00 C 312.25 247.45 297.63 250.75 283.87 256.15 C 284.88 260.10 287.03 263.61 288.55 267.37 C 287.96 267.47 286.78 267.68 286.19 267.78 C 281.90 260.45 279.33 252.27 277.84 243.95 C 277.41 239.83 277.97 235.71 278.73 231.67 C 279.38 231.67 280.69 231.67 281.34 231.67 C 280.66 236.48 280.00 241.36 280.79 246.21 C 288.78 243.01 296.60 239.07 305.14 237.50 C 318.90 234.58 333.05 235.61 347.01 235.75 C 351.26 235.45 355.01 237.64 359.06 238.48 C 358.61 235.68 358.23 232.78 356.72 230.32 C 353.40 224.46 349.92 218.08 343.60 215.02 C 343.55 214.07 343.52 213.13 343.50 212.19 C 347.24 213.59 350.31 216.31 352.79 219.39 C 357.03 224.88 360.60 231.04 361.88 237.94 C 368.49 234.90 375.78 234.03 382.88 232.90 C 389.79 231.33 396.91 231.58 403.94 231.67 C 409.07 231.58 413.85 233.94 419.01 233.77 C 418.24 230.30 417.77 226.51 415.19 223.83 C 411.81 220.14 408.18 216.52 403.87 213.93 C 401.00 212.11 397.45 212.42 394.25 211.72 C 394.35 211.21 394.55 210.18 394.65 209.66 C 397.01 209.68 399.38 209.73 401.75 209.73 C 400.74 207.04 400.16 204.03 398.15 201.86 C 395.29 198.34 390.66 196.70 388.38 192.66 C 385.43 189.02 384.70 184.31 383.65 179.89 C 366.94 177.55 350.57 173.49 334.13 169.79 C 312.78 165.24 291.28 161.36 270.05 156.22 C 259.89 154.65 249.34 153.18 239.23 155.94 M 361.83 240.83 C 361.86 243.08 361.88 245.34 361.91 247.60 C 366.25 246.33 370.51 244.66 375.03 244.08 C 383.79 243.13 392.50 241.20 401.36 241.83 C 400.38 240.59 398.30 239.76 398.57 237.91 C 398.36 236.21 400.12 235.29 400.95 234.05 C 387.75 234.80 374.23 235.98 361.83 240.83 M 404.06 234.41 C 406.45 236.30 406.72 239.83 404.24 241.72 C 409.24 242.47 414.24 243.37 419.31 243.66 C 419.26 241.33 419.13 239.00 418.84 236.69 C 413.86 236.24 409.02 234.87 404.06 234.41 M 327.21 237.85 C 328.40 240.21 326.47 242.34 326.42 244.56 C 327.94 244.92 329.62 244.65 331.00 243.92 C 340.60 243.01 350.03 245.47 359.23 247.89 C 359.20 245.87 359.16 243.85 359.11 241.83 C 349.17 236.97 337.87 238.68 327.21 237.85 M 305.95 240.04 C 297.53 241.92 289.56 245.34 281.77 248.96 C 282.07 250.63 282.52 252.27 283.24 253.82 C 295.16 247.99 308.50 246.22 321.46 244.19 C 320.26 242.39 319.76 240.32 320.44 238.23 C 315.61 238.81 310.76 239.35 305.95 240.04 M 390.15 245.19 C 380.21 245.97 370.17 247.30 360.88 251.07 C 363.45 252.24 366.49 252.43 368.69 254.34 C 372.56 257.44 376.56 260.45 379.94 264.11 C 381.76 266.02 384.14 267.72 386.91 267.59 C 393.27 267.65 399.66 269.10 405.99 268.45 C 413.48 263.58 418.04 255.22 419.44 246.50 C 409.71 245.62 399.93 243.56 390.15 245.19 Z"/>
<path fill="#170d0e" opacity="1.00" d=" M 223.23 286.78 C 222.36 280.73 226.37 273.72 233.03 273.85 C 237.04 275.11 241.56 275.50 244.91 278.28 C 247.59 280.04 248.89 283.49 248.40 286.61 C 245.36 286.14 245.96 282.60 244.04 280.94 C 241.77 278.89 238.11 276.79 235.35 279.23 C 228.97 284.47 232.28 295.66 239.10 298.91 C 241.57 300.39 246.68 297.76 247.02 301.70 C 243.35 302.01 238.96 302.70 235.96 300.04 C 231.52 296.51 228.72 290.88 229.53 285.14 C 229.32 281.70 231.83 279.21 233.80 276.74 C 230.95 276.38 227.81 277.79 226.66 280.53 C 226.02 282.47 225.73 284.51 225.29 286.51 C 224.78 286.58 223.75 286.71 223.23 286.78 Z"/>
</g>
<g id="#486082ff">
<path fill="#486082" opacity="1.00" d=" M 76.99 0.00 L 169.12 0.00 C 112.85 28.41 56.39 56.44 0.00 84.60 L 0.00 41.85 C 22.64 29.93 45.20 17.88 67.75 5.80 C 71.03 4.19 74.32 2.53 76.99 0.00 Z"/>
<path fill="#486082" opacity="1.00" d=" M 589.70 94.72 C 606.49 89.78 623.34 84.99 640.00 79.63 L 640.00 480.00 L 422.22 480.00 C 414.29 465.22 405.87 450.06 392.59 439.36 C 386.99 435.11 385.17 428.00 382.09 422.02 C 377.77 411.56 370.67 402.64 363.37 394.13 C 365.00 390.99 367.23 388.22 369.93 385.94 C 376.61 379.43 384.44 374.30 392.22 369.24 C 396.55 366.48 398.66 360.47 395.52 356.04 C 404.32 356.30 413.14 356.16 421.93 355.51 C 428.06 355.00 434.61 356.19 440.32 353.32 C 444.93 351.00 449.05 345.54 446.82 340.23 C 441.99 331.08 432.89 325.33 426.96 317.01 C 423.11 311.41 419.82 305.45 416.32 299.63 C 418.93 298.01 422.40 296.88 423.50 293.71 C 425.38 287.92 426.47 280.77 422.25 275.71 C 418.82 272.29 414.05 270.77 409.62 269.10 C 413.30 265.55 417.07 261.86 419.08 257.05 C 422.93 249.68 421.85 241.12 421.50 233.14 C 420.90 223.14 412.10 216.65 404.70 211.21 C 403.75 207.55 403.05 203.61 400.55 200.62 C 397.58 196.82 392.77 194.93 390.12 190.84 C 387.93 187.74 387.45 183.89 386.86 180.25 C 393.34 180.62 400.48 180.12 405.52 175.51 C 413.95 168.06 419.05 156.87 418.73 145.57 C 475.70 128.55 532.75 111.79 589.70 94.72 Z"/>
<path fill="#486082" opacity="1.00" d=" M 38.18 258.23 C 76.59 246.69 114.94 234.94 153.36 223.46 C 153.55 229.64 153.09 235.85 153.83 241.99 C 155.65 251.05 160.13 259.71 166.96 266.00 C 170.85 269.80 174.42 273.96 178.74 277.29 C 188.29 284.96 199.99 289.16 211.50 292.88 C 212.69 293.25 212.96 294.65 213.56 295.59 C 215.82 300.79 219.20 305.53 223.47 309.28 C 228.78 312.72 234.23 317.24 241.02 316.29 C 245.20 326.44 250.04 336.79 249.81 348.02 C 249.57 353.41 250.12 358.77 250.28 364.15 C 244.80 369.36 236.87 372.08 232.75 378.79 C 228.04 386.36 222.31 393.43 219.33 401.94 C 218.29 404.16 217.91 407.21 215.30 408.19 C 207.17 412.16 199.51 417.03 191.88 421.88 C 170.41 437.86 149.12 454.26 130.09 473.14 C 128.02 475.16 126.52 477.65 124.86 480.00 L 0.00 480.00 L 0.00 269.96 C 12.60 265.65 25.53 262.38 38.18 258.23 Z"/>
</g>
<g id="#36596dff">
<path fill="#36596d" opacity="1.00" d=" M 173.07 0.00 L 521.77 0.00 C 525.33 7.78 529.47 15.26 533.11 22.99 C 536.01 29.32 539.98 35.17 542.05 41.86 C 541.03 42.28 540.00 42.68 538.99 43.08 C 494.01 58.28 449.09 73.64 404.19 89.04 C 399.99 83.82 396.39 78.09 391.46 73.49 C 386.45 68.79 382.35 63.28 377.93 58.07 C 372.47 52.50 366.91 46.96 360.40 42.61 C 356.39 39.83 352.66 36.49 347.99 34.87 C 348.34 37.31 348.74 39.77 349.73 42.04 C 352.20 47.93 354.56 53.87 357.26 59.66 C 360.96 67.45 363.47 75.73 365.78 84.01 C 367.17 90.40 368.78 96.96 367.85 103.54 C 364.95 98.95 362.48 94.10 359.46 89.58 C 351.07 77.21 341.10 66.03 331.09 54.96 C 326.38 49.22 320.00 45.29 314.57 40.31 C 309.03 36.20 303.54 31.46 296.64 29.89 C 295.93 31.26 295.18 32.62 294.62 34.05 C 295.95 38.23 298.48 41.90 300.09 45.97 C 305.18 56.74 307.95 68.37 311.08 79.81 C 312.64 85.51 313.83 91.35 313.97 97.29 C 304.47 94.06 294.87 90.92 284.91 89.49 C 277.67 88.25 270.30 88.13 262.99 87.62 C 256.98 87.19 251.00 88.16 245.00 88.31 C 241.33 88.37 237.69 88.91 234.13 89.77 C 234.21 84.49 234.55 79.11 233.39 73.91 C 230.87 65.09 224.07 58.49 217.45 52.54 C 210.98 46.15 200.46 44.81 192.24 48.30 C 190.36 49.06 190.16 51.36 189.33 52.94 C 193.78 60.78 197.48 69.04 202.41 76.59 C 207.43 84.27 211.69 92.39 216.64 100.11 C 212.10 103.63 208.19 107.86 203.96 111.73 C 199.15 104.77 195.55 97.08 190.94 90.00 C 183.31 77.01 175.70 64.00 168.02 51.04 C 160.97 38.69 153.23 26.71 146.54 14.16 C 153.22 11.01 159.72 7.51 166.42 4.40 C 168.88 3.32 171.03 1.71 173.07 0.00 Z"/>
<path fill="#36596d" opacity="1.00" d=" M 524.36 0.00 L 640.00 0.00 L 640.00 8.66 C 613.28 17.57 586.72 26.95 559.97 35.78 C 554.83 37.37 549.93 39.68 544.67 40.88 C 537.94 27.24 531.14 13.62 524.36 0.00 Z"/>
<path fill="#36596d" opacity="1.00" d=" M 620.11 21.25 C 626.81 19.11 634.04 18.12 640.00 14.10 L 640.00 77.16 C 585.82 93.04 531.71 109.20 477.59 125.29 C 457.92 131.01 438.40 137.25 418.63 142.61 C 418.38 136.72 418.20 130.78 416.58 125.08 C 413.87 114.65 411.61 103.89 406.61 94.26 C 415.67 90.87 425.08 88.51 434.18 85.23 C 438.52 83.57 443.18 82.67 447.18 80.21 C 451.08 77.77 455.81 77.59 460.06 76.11 C 464.77 74.42 469.66 73.28 474.26 71.28 C 479.06 69.15 484.33 68.35 489.10 66.13 C 496.10 62.92 503.82 61.88 510.94 59.00 C 521.76 54.59 533.32 52.16 543.88 47.08 C 548.71 45.08 553.94 44.39 558.89 42.75 C 565.46 41.05 571.33 37.38 577.99 35.94 C 583.85 34.59 589.04 31.36 594.88 29.97 C 603.55 27.89 611.87 24.61 620.11 21.25 Z"/>
<path fill="#36596d" opacity="1.00" d=" M 0.00 87.35 C 48.17 63.44 96.24 39.30 144.38 15.32 C 146.35 18.18 148.09 21.20 149.80 24.23 C 167.19 53.80 184.44 83.45 201.92 112.96 C 198.05 117.52 195.21 122.83 191.43 127.42 C 190.12 129.48 187.83 127.62 186.03 127.38 C 183.40 120.80 179.82 114.66 176.85 108.24 C 170.27 94.10 162.64 80.48 155.04 66.88 C 153.51 63.16 147.64 63.71 146.34 67.31 C 143.19 74.09 142.47 81.69 142.35 89.08 C 142.28 94.60 144.44 99.79 146.31 104.88 C 147.24 107.60 148.48 110.24 150.42 112.40 C 154.58 116.89 156.00 123.03 158.79 128.33 C 161.13 134.10 165.18 139.46 165.05 145.95 C 158.42 149.40 151.72 152.72 145.13 156.25 C 140.24 158.92 134.89 160.75 130.42 164.15 C 130.26 164.91 129.96 166.42 129.80 167.18 C 133.86 170.26 138.89 171.37 143.48 173.35 C 139.98 175.64 135.86 176.55 131.95 177.87 C 87.97 193.13 43.94 208.27 0.00 223.67 L 0.00 87.35 Z"/>
<path fill="#36596d" opacity="1.00" d=" M 105.12 193.16 C 120.38 186.99 136.57 183.40 151.67 176.82 C 156.20 179.50 161.21 181.21 166.27 182.59 C 158.50 193.76 155.99 207.51 153.57 220.63 C 102.34 235.93 51.20 251.61 0.00 267.01 L 0.00 228.69 C 8.93 225.56 17.94 222.69 26.95 219.85 C 35.55 215.92 44.88 214.08 53.71 210.76 C 70.87 204.96 88.01 199.09 105.12 193.16 Z"/>
</g>
<g id="#e96f1cff">
<path fill="#e96f1c" opacity="1.00" d=" M 297.39 33.12 C 298.61 33.36 299.91 33.37 301.05 33.91 C 309.27 38.81 316.38 45.24 323.85 51.16 C 327.02 53.64 329.55 56.81 332.15 59.85 C 344.61 73.35 356.48 87.69 364.97 104.07 C 365.73 105.85 367.47 106.62 369.32 106.69 C 369.92 103.86 370.84 101.01 370.49 98.09 C 369.72 91.46 369.50 84.64 366.93 78.38 C 363.70 67.47 359.03 57.07 354.33 46.73 C 354.70 46.07 355.46 44.73 355.84 44.06 C 356.58 44.19 358.06 44.46 358.80 44.59 C 365.53 48.86 371.02 54.75 376.57 60.39 C 385.23 71.88 397.34 80.80 403.62 94.03 C 408.41 102.77 410.45 112.63 413.17 122.13 C 414.15 127.40 416.00 132.55 415.71 138.00 C 415.51 144.98 417.02 152.46 413.79 158.97 C 410.87 166.84 405.43 174.69 397.05 177.22 C 388.17 178.71 379.25 176.75 370.53 175.16 C 350.95 171.14 331.55 166.28 311.91 162.55 C 299.13 160.09 286.41 157.29 273.73 154.38 C 263.99 152.60 254.07 150.65 244.14 152.14 C 240.88 152.71 237.25 153.29 234.99 155.97 C 242.80 162.16 249.84 169.33 255.76 177.36 C 258.76 180.93 260.89 185.14 262.29 189.57 C 252.86 185.38 243.30 181.42 233.43 178.41 C 230.12 177.32 226.53 177.31 223.21 178.34 C 223.03 181.22 225.79 182.56 227.56 184.30 C 243.65 199.72 253.02 220.45 260.47 241.10 C 264.39 256.00 266.15 271.74 263.49 287.03 C 260.91 286.18 260.36 283.06 258.89 281.08 C 254.92 274.84 251.62 267.93 245.97 263.00 C 241.67 260.98 236.85 258.87 232.01 260.08 C 223.46 262.73 215.33 268.87 212.70 277.73 C 211.09 281.61 211.71 285.88 211.67 289.97 C 198.77 286.42 186.06 281.02 176.07 271.91 C 170.65 266.05 164.24 260.85 160.66 253.56 C 155.42 244.31 155.35 233.36 155.98 223.06 C 157.25 213.55 159.57 204.18 162.58 195.07 C 164.57 190.91 165.96 186.19 169.60 183.10 C 169.54 182.32 169.49 181.53 169.44 180.76 C 163.63 179.07 157.73 177.44 152.38 174.52 C 146.37 171.26 139.64 169.61 133.52 166.64 C 133.42 166.29 133.23 165.60 133.13 165.25 C 144.55 159.14 156.26 153.52 167.67 147.36 C 167.56 145.12 167.83 142.80 167.20 140.62 C 163.55 132.35 159.65 124.21 155.97 115.96 C 167.94 120.84 178.94 128.02 191.35 131.77 C 195.12 127.25 198.07 122.12 201.66 117.48 C 207.01 111.76 212.77 106.38 218.94 101.55 C 224.72 97.50 230.80 93.28 237.95 92.24 C 248.04 91.52 258.06 89.57 268.22 90.33 C 273.21 90.53 278.11 91.52 283.10 91.76 C 292.95 93.19 302.45 96.28 311.95 99.16 C 313.53 99.68 315.21 99.65 316.85 99.64 C 316.22 92.92 315.81 86.08 313.75 79.61 C 310.46 67.85 307.72 55.84 302.36 44.80 C 301.06 40.75 298.09 37.37 297.39 33.12 Z"/>
</g>
<g id="#aa282aff">
<path fill="#aa282a" opacity="1.00" d=" M 351.64 39.59 C 354.22 40.97 356.61 42.67 358.80 44.59 C 358.06 44.46 356.58 44.19 355.84 44.06 C 355.46 44.73 354.70 46.07 354.33 46.73 C 353.23 44.44 352.31 42.05 351.64 39.59 Z"/>
<path fill="#aa282a" opacity="1.00" d=" M 218.94 101.55 C 225.63 95.15 234.67 90.96 243.99 90.81 C 252.04 90.10 260.16 89.16 268.22 90.33 C 258.06 89.57 248.04 91.52 237.95 92.24 C 230.80 93.28 224.72 97.50 218.94 101.55 Z"/>
<path fill="#aa282a" opacity="1.00" d=" M 239.37 375.36 C 242.81 372.60 246.35 369.93 250.32 367.97 C 250.61 376.72 250.43 385.55 248.91 394.20 C 248.55 390.92 248.16 387.64 247.25 384.46 L 245.98 385.99 C 245.15 391.17 246.42 396.45 247.13 401.59 C 250.00 422.27 257.85 441.80 266.17 460.81 C 269.16 467.28 272.12 473.80 275.65 480.00 L 216.14 480.00 C 215.03 467.35 216.00 454.66 216.60 442.02 C 217.76 430.86 217.96 419.60 219.73 408.52 C 221.86 401.37 225.34 394.68 229.49 388.50 C 232.58 383.99 234.95 378.78 239.37 375.36 Z"/>
<path fill="#aa282a" opacity="1.00" d=" M 353.26 414.28 C 356.30 408.59 358.47 402.41 362.32 397.18 C 366.29 401.73 370.29 406.29 373.37 411.52 C 377.93 417.72 380.37 425.09 383.81 431.92 C 388.59 444.86 394.12 457.58 397.55 470.99 C 398.07 473.96 397.82 477.00 397.79 480.00 L 361.67 480.00 C 361.98 466.83 358.52 454.05 356.57 441.14 C 355.69 436.37 355.74 431.22 353.08 426.99 C 352.07 425.06 350.34 423.39 350.10 421.17 C 350.78 418.72 352.12 416.53 353.26 414.28 Z"/>
<path fill="#aa282a" opacity="1.00" d=" M 209.80 413.93 C 211.84 412.60 214.12 411.71 216.46 411.07 C 215.37 425.37 213.49 439.63 213.40 453.99 C 212.42 462.64 212.47 471.37 213.66 480.00 L 127.79 480.00 C 134.56 471.76 142.40 464.40 150.68 457.68 C 163.06 447.00 176.00 436.99 189.03 427.12 C 195.52 422.07 202.87 418.31 209.80 413.93 Z"/>
<path fill="#aa282a" opacity="1.00" d=" M 389.90 440.09 C 402.67 450.83 411.81 465.07 418.94 480.00 L 400.29 480.00 C 401.44 470.92 397.87 462.27 395.04 453.85 C 393.57 449.16 390.89 444.92 389.90 440.09 Z"/>
</g>
<g id="#172f30ff">
<path fill="#172f30" opacity="1.00" d=" M 192.31 51.34 C 200.55 46.97 211.89 48.82 217.98 55.98 C 223.60 61.66 230.06 67.69 231.24 76.01 C 231.69 80.95 232.15 86.03 231.14 90.93 C 226.15 92.47 222.73 97.45 217.43 97.87 C 213.08 89.90 208.86 81.83 203.77 74.29 C 201.00 69.31 197.53 64.69 195.58 59.29 C 194.85 57.27 193.64 55.48 192.26 53.85 C 192.27 53.23 192.30 51.97 192.31 51.34 Z"/>
<path fill="#172f30" opacity="1.00" d=" M 149.34 67.38 C 150.91 66.52 152.96 67.67 153.68 69.20 C 161.15 82.90 168.86 96.49 175.36 110.68 C 177.45 115.53 180.64 119.89 182.01 125.04 C 173.87 122.34 166.44 117.99 158.67 114.46 C 156.06 113.42 153.33 110.92 150.42 112.40 C 148.48 110.24 147.24 107.60 146.31 104.88 C 147.75 101.41 146.14 97.81 145.66 94.32 C 144.70 87.78 145.33 81.09 146.65 74.64 C 147.21 72.12 147.75 69.48 149.34 67.38 Z"/>
</g>
<g id="#feb491ff">
<path fill="#feb491" opacity="1.00" d=" M 239.23 155.94 C 249.34 153.18 259.89 154.65 270.05 156.22 C 291.28 161.36 312.78 165.24 334.13 169.79 C 350.57 173.49 366.94 177.55 383.65 179.89 C 384.70 184.31 385.43 189.02 388.38 192.66 C 390.66 196.70 395.29 198.34 398.15 201.86 C 400.16 204.03 400.74 207.04 401.75 209.73 C 399.38 209.73 397.01 209.68 394.65 209.66 C 394.55 210.18 394.35 211.21 394.25 211.72 C 397.45 212.42 401.00 212.11 403.87 213.93 C 408.18 216.52 411.81 220.14 415.19 223.83 C 417.77 226.51 418.24 230.30 419.01 233.77 C 413.85 233.94 409.07 231.58 403.94 231.67 C 396.91 231.58 389.79 231.33 382.88 232.90 C 375.78 234.03 368.49 234.90 361.88 237.94 C 360.60 231.04 357.03 224.88 352.79 219.39 C 350.31 216.31 347.24 213.59 343.50 212.19 C 343.52 213.13 343.55 214.07 343.60 215.02 C 349.92 218.08 353.40 224.46 356.72 230.32 C 358.23 232.78 358.61 235.68 359.06 238.48 C 355.01 237.64 351.26 235.45 347.01 235.75 C 333.05 235.61 318.90 234.58 305.14 237.50 C 296.60 239.07 288.78 243.01 280.79 246.21 C 280.00 241.36 280.66 236.48 281.34 231.67 C 280.69 231.67 279.38 231.67 278.73 231.67 C 277.97 235.71 277.41 239.83 277.84 243.95 C 279.33 252.27 281.90 260.45 286.19 267.78 C 286.78 267.68 287.96 267.47 288.55 267.37 C 287.03 263.61 284.88 260.10 283.87 256.15 C 297.63 250.75 312.25 247.45 327.05 247.00 C 337.81 245.69 348.56 247.71 358.88 250.63 C 359.15 256.31 355.93 260.96 352.54 265.16 C 352.92 265.49 353.66 266.15 354.03 266.48 C 358.10 263.69 359.90 258.86 361.28 254.33 C 363.61 255.00 366.15 255.42 368.01 257.11 C 371.23 259.89 374.67 262.43 377.59 265.54 C 379.78 267.88 382.66 269.89 385.96 270.09 C 391.95 270.64 397.92 271.51 403.95 271.55 C 409.92 271.52 415.97 273.57 420.50 277.49 C 423.16 281.14 422.49 286.01 421.74 290.19 C 421.54 292.30 420.65 294.59 418.57 295.48 C 415.49 297.04 412.36 298.62 408.99 299.42 C 403.01 300.05 396.87 299.04 391.05 300.97 C 388.80 302.06 383.98 300.31 384.36 304.23 C 387.23 304.12 390.12 303.94 392.94 303.31 C 399.79 301.47 407.20 303.40 413.88 300.65 C 418.13 307.76 422.13 315.05 427.29 321.56 C 431.56 326.35 436.15 330.84 440.52 335.53 C 442.48 337.96 445.06 340.59 444.48 344.00 C 444.57 347.78 440.96 350.02 438.00 351.51 C 432.87 353.44 427.27 352.07 421.95 352.82 C 412.36 354.15 402.67 353.40 393.03 353.48 C 382.01 353.44 371.00 353.44 359.98 353.38 C 355.77 353.30 351.67 354.51 347.80 356.06 C 346.68 356.28 344.80 357.55 346.33 358.69 C 350.99 358.38 355.23 355.63 360.00 355.83 C 369.65 355.89 379.31 355.72 388.95 356.07 C 390.37 357.05 391.94 357.76 393.61 358.19 C 395.58 361.75 393.05 366.11 389.80 367.88 C 380.23 373.75 370.91 380.36 363.60 388.95 C 359.53 395.89 355.55 402.92 352.36 410.32 C 349.00 417.61 344.93 424.56 341.77 431.94 C 340.92 434.17 339.25 435.90 337.65 437.60 C 328.79 437.54 319.94 438.95 311.11 437.98 C 307.78 437.67 304.38 438.09 301.10 437.30 C 292.69 434.91 284.21 432.74 275.82 430.31 C 268.06 427.31 260.89 422.91 254.22 417.98 C 251.63 416.19 251.99 412.74 251.37 410.03 C 250.83 406.05 248.80 401.96 250.48 398.01 C 255.39 381.05 252.42 363.28 252.50 345.94 C 252.18 335.41 247.58 325.85 243.91 316.19 C 246.39 315.16 250.80 314.59 250.76 311.16 C 248.30 311.35 246.22 312.73 243.92 313.43 C 240.91 313.81 237.87 313.47 234.85 313.38 C 231.60 311.14 227.97 309.49 224.81 307.11 C 218.35 300.88 212.94 292.24 214.28 282.89 C 214.97 274.89 220.42 267.89 227.60 264.52 C 232.92 261.67 239.59 262.29 244.73 265.12 C 252.05 272.56 256.07 282.45 262.02 290.89 C 264.53 290.99 265.43 288.04 266.22 286.14 C 269.53 270.80 266.39 255.06 262.91 240.06 C 256.25 222.79 249.20 205.13 236.91 191.00 C 233.92 186.97 230.64 183.19 226.64 180.13 C 230.46 180.03 234.08 181.31 237.67 182.43 C 247.09 185.58 256.09 189.79 265.29 193.49 C 265.83 192.17 266.02 190.72 265.25 189.45 C 263.39 185.51 262.09 181.21 259.26 177.82 C 255.41 173.03 251.85 167.97 247.38 163.72 C 244.81 160.98 241.73 158.75 239.23 155.94 M 223.23 286.78 C 223.75 286.71 224.78 286.58 225.29 286.51 C 225.73 284.51 226.02 282.47 226.66 280.53 C 227.81 277.79 230.95 276.38 233.80 276.74 C 231.83 279.21 229.32 281.70 229.53 285.14 C 228.72 290.88 231.52 296.51 235.96 300.04 C 238.96 302.70 243.35 302.01 247.02 301.70 C 246.68 297.76 241.57 300.39 239.10 298.91 C 232.28 295.66 228.97 284.47 235.35 279.23 C 238.11 276.79 241.77 278.89 244.04 280.94 C 245.96 282.60 245.36 286.14 248.40 286.61 C 248.89 283.49 247.59 280.04 244.91 278.28 C 241.56 275.50 237.04 275.11 233.03 273.85 C 226.37 273.72 222.36 280.73 223.23 286.78 Z"/>
<path fill="#feb491" opacity="1.00" d=" M 390.15 245.19 C 399.93 243.56 409.71 245.62 419.44 246.50 C 418.04 255.22 413.48 263.58 405.99 268.45 C 399.66 269.10 393.27 267.65 386.91 267.59 C 384.14 267.72 381.76 266.02 379.94 264.11 C 376.56 260.45 372.56 257.44 368.69 254.34 C 366.49 252.43 363.45 252.24 360.88 251.07 C 370.17 247.30 380.21 245.97 390.15 245.19 Z"/>
</g>
<g id="#f6f6f6ff">
<path fill="#f6f6f6" opacity="1.00" d=" M 361.83 240.83 C 374.23 235.98 387.75 234.80 400.95 234.05 C 400.12 235.29 398.36 236.21 398.57 237.91 C 398.30 239.76 400.38 240.59 401.36 241.83 C 392.50 241.20 383.79 243.13 375.03 244.08 C 370.51 244.66 366.25 246.33 361.91 247.60 C 361.88 245.34 361.86 243.08 361.83 240.83 Z"/>
<path fill="#f6f6f6" opacity="1.00" d=" M 404.06 234.41 C 409.02 234.87 413.86 236.24 418.84 236.69 C 419.13 239.00 419.26 241.33 419.31 243.66 C 414.24 243.37 409.24 242.47 404.24 241.72 C 406.72 239.83 406.45 236.30 404.06 234.41 Z"/>
<path fill="#f6f6f6" opacity="1.00" d=" M 327.21 237.85 C 337.87 238.68 349.17 236.97 359.11 241.83 C 359.16 243.85 359.20 245.87 359.23 247.89 C 350.03 245.47 340.60 243.01 331.00 243.92 C 329.62 244.65 327.94 244.92 326.42 244.56 C 326.47 242.34 328.40 240.21 327.21 237.85 Z"/>
<path fill="#f6f6f6" opacity="1.00" d=" M 305.95 240.04 C 310.76 239.35 315.61 238.81 320.44 238.23 C 319.76 240.32 320.26 242.39 321.46 244.19 C 308.50 246.22 295.16 247.99 283.24 253.82 C 282.52 252.27 282.07 250.63 281.77 248.96 C 289.56 245.34 297.53 241.92 305.95 240.04 Z"/>
<path fill="#f6f6f6" opacity="1.00" d=" M 254.51 421.66 C 262.58 426.93 270.89 432.39 280.44 434.48 C 287.52 436.51 294.63 438.48 301.79 440.20 C 314.15 441.89 326.67 441.26 339.05 440.07 C 341.19 437.80 343.38 435.45 344.52 432.49 C 345.83 430.03 346.43 426.96 348.74 425.20 C 350.93 427.86 351.99 431.18 352.70 434.50 C 354.01 442.03 354.82 449.66 356.47 457.14 C 358.76 464.53 358.39 472.36 358.74 480.00 L 278.87 480.00 C 274.89 472.84 271.29 465.48 268.08 457.95 C 262.88 446.12 257.89 434.15 254.51 421.66 Z"/>
</g>
</svg>
